#!OML:ASF X:\für Bonn\!DataBase\2005_08_12_Daniel\c3d\Daniel.ASF
:FULLY-SPECIFIED
:DEGREES
16
root -0.927767 17.4882 0.632408 167.046 0.0968491 -178.416
lowerback 16.384 -0.491942 1.28073
upperback 5.29215 -1.30367 -1.50741
thorax -3.60036 -0.971129 -2.04294
lowerneck 4.75655 -0.96776 -6.49922
upperneck 16.4725 0.656873 -2.20796
head 4.66926 0.525139 0.456259
rclavicle 6.4605e-016 -3.97569e-015
rhumerus 139.021 -194.385 -281.096
rradius 89.3188
rwrist -50.3705
rhand -8.75419 19.1366
rfingers 7.12502
rthumb 17.183 -10.1236
lclavicle 6.4605e-016 -3.97569e-015
lhumerus -34.3035 22.7987 74.8448
lradius 29.4521
lwrist -15.3149
lhand -13.0366 -5.65442
lfingers 7.12502
lthumb 13.058 23.9168
rfemur -4.27455 -5.62273 15.4257
rtibia 47.4943
rfoot -9.7386 5.70285
rtoes -14.1556
lfemur -5.87118 -13.2393 -21.7152
ltibia 37.2198
lfoot -17.4308 2.93305
ltoes -9.7191
17
root -0.927579 17.4851 0.590225 167.063 -0.144664 -178.396
lowerback 16.5933 -0.524446 1.19664
upperback 5.36463 -1.37675 -1.4937
thorax -3.63641 -1.01513 -1.96394
lowerneck 4.64433 -1.02542 -6.49851
upperneck 16.6437 0.587712 -2.07988
head 4.75701 0.493362 0.499595
rclavicle -4.52235e-015 -1.82882e-014
rhumerus 139.042 -194.335 -280.978
rradius 89.1402
rwrist -50.4526
rhand -8.89073 19.0875
rfingers 7.12502
rthumb 17.0516 -10.1841
lclavicle -4.52235e-015 -1.82882e-014
lhumerus -33.6758 21.572 75.7832
lradius 30.2537
lwrist -13.952
lhand -13.2906 -5.83114
lfingers 7.12502
lthumb 12.813 23.7556
rfemur -4.19482 -5.50985 15.4803
rtibia 46.0494
rfoot -10.3014 5.50881
rtoes -14.552
lfemur -5.80389 -13.2668 -21.7426
ltibia 37.289
lfoot -17.5865 2.73829
ltoes -9.78705
18
root -0.926544 17.4825 0.549107 167.054 -0.351877 -178.365
lowerback 16.8221 -0.543587 1.14139
upperback 5.45782 -1.43268 -1.48396
thorax -3.66013 -1.05245 -1.9084
lowerneck 4.62336 -1.07398 -6.54523
upperneck 16.7496 0.510796 -1.90291
head 4.80332 0.458883 0.567057
rclavicle 2.48481e-015 4.77083e-015
rhumerus 139.095 -194.26 -280.869
rradius 88.8824
rwrist -50.4871
rhand -9.00466 19.0666
rfingers 7.12502
rthumb 16.942 -10.2145
lclavicle 2.48481e-015 4.77083e-015
lhumerus -33.0855 20.4415 76.6409
lradius 31.1082
lwrist -12.7369
lhand -13.5507 -6.08442
lfingers 7.12502
lthumb 12.5623 23.5179
rfemur -4.07079 -5.34685 15.5512
rtibia 44.6004
rfoot -10.7657 5.27497
rtoes -14.7123
lfemur -5.70226 -13.2982 -21.7638
ltibia 37.3712
lfoot -17.7676 2.5839
ltoes -9.73325
19
root -0.924448 17.4797 0.510885 167.058 -0.585885 -178.329
lowerback 17.0508 -0.564236 1.09527
upperback 5.56311 -1.49076 -1.46375
thorax -3.67056 -1.09157 -1.84638
lowerneck 4.65117 -1.12116 -6.63041
upperneck 16.7785 0.419331 -1.71324
head 4.81203 0.415427 0.644563
rclavicle -5.66536e-015 -2.46493e-014
rhumerus 139.21 -194.237 -280.736
rradius 88.5888
rwrist -50.554
rhand -9.20281 18.943
rfingers 7.12502
rthumb 16.7512 -10.3543
lclavicle -5.66536e-015 -2.46493e-014
lhumerus -32.5282 19.3492 77.4791
lradius 32.0545
lwrist -11.6045
lhand -13.7664 -6.33623
lfingers 7.12502
lthumb 12.3543 23.2787
rfemur -3.94559 -5.15458 15.636
rtibia 43.1712
rfoot -11.2101 4.96673
rtoes -14.7086
lfemur -5.6464 -13.2961 -21.7554
ltibia 37.4666
lfoot -17.9293 2.35989
ltoes -9.81406
20
root -0.921152 17.4753 0.475634 167.039 -0.80709 -178.312
lowerback 17.3228 -0.561399 1.05026
upperback 5.67517 -1.52303 -1.47078
thorax -3.69582 -1.11957 -1.818
lowerneck 4.75185 -1.18221 -6.62179
upperneck 16.7759 0.305704 -1.54708
head 4.7943 0.367449 0.696528
rclavicle 1.4561e-014 1.90833e-014
rhumerus 139.386 -194.132 -280.602
rradius 88.2074
rwrist -50.5593
rhand -9.38545 18.7428
rfingers 7.12502
rthumb 16.5754 -10.5693
lclavicle 1.4561e-014 1.90833e-014
lhumerus -32.0336 18.2493 78.2436
lradius 33.0701
lwrist -10.5922
lhand -13.9182 -6.58466
lfingers 7.12502
lthumb 12.208 23.0391
rfemur -3.79127 -4.9402 15.7046
rtibia 41.7766
rfoot -11.677 4.62361
rtoes -14.7575
lfemur -5.57228 -13.2975 -21.7687
ltibia 37.5637
lfoot -18.0889 2.15675
ltoes -9.81221
21
root -0.917288 17.4707 0.441745 167.046 -1.03424 -178.298
lowerback 17.5768 -0.561133 0.996908
upperback 5.7825 -1.55847 -1.46615
thorax -3.71586 -1.14865 -1.77199
lowerneck 4.81364 -1.23666 -6.69742
upperneck 16.8111 0.20015 -1.32163
head 4.79995 0.320343 0.784425
rclavicle -1.47101e-014 -2.38542e-015
rhumerus 139.54 -194.088 -280.466
rradius 87.8186
rwrist -50.5433
rhand -9.65461 18.4871
rfingers 7.12502
rthumb 16.3162 -10.8464
lclavicle -1.47101e-014 -2.38542e-015
lhumerus -31.5599 17.3369 78.9381
lradius 34.0713
lwrist -9.75269
lhand -13.9383 -6.84926
lfingers 7.12502
lthumb 12.1886 22.7756
rfemur -3.65209 -4.71819 15.7696
rtibia 40.4371
rfoot -12.1831 4.2315
rtoes -14.6831
lfemur -5.54368 -13.2933 -21.7727
ltibia 37.6736
lfoot -18.2439 1.94117
ltoes -9.89373
22
root -0.911106 17.465 0.41132 167.03 -1.25676 -178.294
lowerback 17.8836 -0.536027 0.945294
upperback 5.8906 -1.565 -1.47838
thorax -3.76171 -1.16482 -1.74962
lowerneck 4.92711 -1.31437 -6.72133
upperneck 16.8265 0.0605723 -1.10624
head 4.78884 0.260439 0.85869
rclavicle 2.16675e-014 9.54166e-015
rhumerus 139.706 -193.976 -280.342
rradius 87.3742
rwrist -50.5218
rhand -9.92984 18.2405
rfingers 7.12502
rthumb 16.0512 -11.1146
lclavicle 2.16675e-014 9.54166e-015
lhumerus -31.1143 16.3642 79.5861
lradius 35.0653
lwrist -8.97202
lhand -13.9346 -7.10992
lfingers 7.12502
lthumb 12.1922 22.5148
rfemur -3.4963 -4.45673 15.8374
rtibia 39.165
rfoot -12.644 3.80501
rtoes -14.4336
lfemur -5.51257 -13.2635 -21.7718
ltibia 37.791
lfoot -18.4057 1.69715
ltoes -9.96905
23
root -0.904948 17.4584 0.382707 167.017 -1.47616 -178.278
lowerback 18.1783 -0.51298 0.914532
upperback 6.03081 -1.57632 -1.48279
thorax -3.76681 -1.18548 -1.73037
lowerneck 5.03497 -1.37753 -6.75125
upperneck 16.7983 -0.066413 -0.893829
head 4.76234 0.204632 0.932998
rclavicle -4.27387e-015 1.27222e-014
rhumerus 139.919 -193.928 -280.186
rradius 86.9457
rwrist -50.466
rhand -10.2832 17.8569
rfingers 7.12502
rthumb 15.7109 -11.5253
lclavicle -4.27387e-015 1.27222e-014
lhumerus -30.6643 15.5671 80.1919
lradius 36.0833
lwrist -8.31958
lhand -13.7847 -7.33374
lfingers 7.12502
lthumb 12.3367 22.2823
rfemur -3.34266 -4.24474 15.907
rtibia 37.984
rfoot -13.0724 3.3929
rtoes -14.2327
lfemur -5.48948 -13.2409 -21.7496
ltibia 37.9091
lfoot -18.5506 1.44142
ltoes -9.97667
24
root -0.896813 17.452 0.357276 166.991 -1.69525 -178.278
lowerback 18.5364 -0.47914 0.868035
upperback 6.15556 -1.57785 -1.49953
thorax -3.82065 -1.20194 -1.71585
lowerneck 5.18339 -1.44417 -6.76766
upperneck 16.7528 -0.20263 -0.668688
head 4.72211 0.146401 1.0089
rclavicle -9.44227e-015 2.38542e-015
rhumerus 140.102 -193.86 -280.062
rradius 86.5009
rwrist -50.4192
rhand -10.6092 17.4808
rfingers 7.12502
rthumb 15.397 -11.9258
lclavicle -9.44227e-015 2.38542e-015
lhumerus -30.2716 14.8365 80.7319
lradius 37.0867
lwrist -7.79302
lhand -13.6202 -7.4932
lfingers 7.12502
lthumb 12.4953 22.1132
rfemur -3.19882 -3.98075 15.975
rtibia 36.9084
rfoot -13.4089 2.87275
rtoes -13.776
lfemur -5.46213 -13.2024 -21.7413
ltibia 38.033
lfoot -18.6911 1.19439
ltoes -9.98895
25
root -0.888009 17.4479 0.334259 166.973 -1.91026 -178.276
lowerback 18.8906 -0.440695 0.819516
upperback 6.29866 -1.5772 -1.50151
thorax -3.85163 -1.21891 -1.6853
lowerneck 5.27064 -1.51617 -6.81737
upperneck 16.7411 -0.340972 -0.433945
head 4.7079 0.0841342 1.09459
rclavicle 1.17283e-014 4.77083e-015
rhumerus 140.319 -193.86 -279.896
rradius 86.0593
rwrist -50.3862
rhand -10.976 17.1177
rfingers 7.12502
rthumb 15.0436 -12.3157
lclavicle 1.17283e-014 4.77083e-015
lhumerus -29.9068 14.119 81.277
lradius 38.1329
lwrist -7.18558
lhand -13.3766 -7.64888
lfingers 7.12502
lthumb 12.7301 21.9431
rfemur -3.10463 -3.70055 16.0496
rtibia 35.9423
rfoot -13.6061 2.29487
rtoes -13.018
lfemur -5.45439 -13.1448 -21.7077
ltibia 38.1379
lfoot -18.8076 0.919388
ltoes -10.008
26
root -0.87805 17.441 0.314141 166.953 -2.11859 -178.276
lowerback 19.2789 -0.392147 0.788791
upperback 6.44451 -1.56415 -1.51598
thorax -3.89669 -1.23098 -1.68025
lowerneck 5.39201 -1.59164 -6.85052
upperneck 16.7082 -0.48723 -0.197886
head 4.67972 0.0194948 1.17747
rclavicle 1.58034e-014 2.06736e-014
rhumerus 140.566 -193.811 -279.751
rradius 85.5657
rwrist -50.3207
rhand -11.2941 16.7255
rfingers 7.12502
rthumb 14.7372 -12.7306
lclavicle 1.58034e-014 2.06736e-014
lhumerus -29.6082 13.493 81.764
lradius 39.198
lwrist -6.79108
lhand -13.1667 -7.82114
lfingers 7.12502
lthumb 12.9325 21.7581
rfemur -3.03558 -3.44297 16.1197
rtibia 35.0707
rfoot -13.71 1.66409
rtoes -12.311
lfemur -5.45095 -13.1177 -21.6727
ltibia 38.2352
lfoot -18.9274 0.641247
ltoes -9.86548
